<svg width="333" height="108" viewBox="0 0 333 108" fill="none" xmlns="http://www.w3.org/2000/svg">
<path d="M176.642 6.996C176.642 8.6589 176.107 10.0527 175.037 11.1687C173.967 12.2891 172.57 12.8448 170.85 12.8448C169.129 12.8448 167.798 12.2846 166.706 11.1687C165.61 10.0483 165.061 8.6589 165.061 6.996C165.061 5.3331 165.61 4.00542 166.706 2.85859C167.803 1.71176 169.182 1.14276 170.85 1.14276C172.517 1.14276 173.967 1.71617 175.037 2.85859C176.107 4.00542 176.642 5.38162 176.642 6.996Z" fill="white"/>
<path d="M224.938 27.709C223.165 24.7713 220.755 22.4292 217.7 20.6869C214.649 18.9446 211.195 18.0712 207.335 18.0712C203.474 18.0712 200.162 18.9446 197.089 20.6869C194.011 22.4292 191.588 24.7713 189.815 27.709C188.042 30.651 187.157 33.968 187.157 37.6599C187.157 41.3518 188.055 44.6953 189.855 47.6859C191.654 50.6809 194.078 53.0451 197.129 54.7874C200.18 56.5297 203.611 57.403 207.419 57.403C211.226 57.403 214.653 56.5297 217.704 54.7874C220.755 53.0451 223.17 50.6765 224.943 47.6859C226.716 44.6953 227.601 41.3518 227.601 37.6599C227.601 33.968 226.716 30.6466 224.943 27.709H224.938ZM215.9 43.0059C215.091 44.5409 213.945 45.7363 212.46 46.5964C210.974 47.4521 209.267 47.8844 207.335 47.8844C205.402 47.8844 203.788 47.4565 202.329 46.5964C200.87 45.7407 199.72 44.5409 198.889 43.0059C198.053 41.4709 197.637 39.7154 197.637 37.7393C197.637 35.7633 198.053 34.021 198.889 32.5124C199.72 31.0039 200.87 29.8174 202.329 28.9617C203.788 28.106 205.46 27.6737 207.335 27.6737C209.21 27.6737 210.961 28.1016 212.42 28.9617C213.879 29.8174 215.024 31.0039 215.86 32.5124C216.692 34.021 217.112 35.7633 217.112 37.7393C217.112 39.7154 216.709 41.4709 215.9 43.0059Z" fill="white"/>
<path d="M275.01 56.8124C275.01 56.8124 266.374 57.5976 261.961 53.9762C259.843 52.2384 258.366 50.2623 257.336 48.273C256.624 46.8924 256.124 45.5029 255.783 44.1797C255.354 42.5168 255.164 39.3762 255.164 37.6604V35.005C255.164 32.7687 254.461 30.947 253.051 29.5444C251.644 28.1417 249.818 27.436 247.576 27.436C246.117 27.436 244.812 27.7491 243.663 28.3711C242.513 28.993 241.615 29.8796 240.965 31.022C240.311 32.1688 239.988 33.4921 239.988 35.0006V56.6007C239.988 56.6007 239.979 56.6184 239.97 56.6184H229.756C229.756 56.6184 229.738 56.6095 229.738 56.6007V18.9406C229.738 18.9406 229.747 18.923 229.756 18.923H239.97C239.97 18.923 239.988 18.9318 239.988 18.9406V24.6924C239.988 24.6924 240.006 28.2211 240.019 28.2211C240.068 28.2211 242.354 23.3074 244.282 21.1637C246.696 18.4819 250.309 18.1863 250.941 18.1466C253.497 17.9834 255.66 18.8833 256.38 19.1832C257.07 19.4699 257.733 19.814 258.375 20.2154C260.564 21.596 262.288 23.3912 263.54 25.601C264.791 27.8153 265.419 30.1928 265.419 32.7423V37.8677C265.357 38.6969 265.233 41.6522 267.25 43.9238C269.346 46.2881 272.631 46.6321 273.989 46.7777C274.409 46.8218 274.758 46.835 275.001 46.8438L275.01 56.8124Z" fill="white"/>
<path d="M289.601 6.99648C289.601 8.65938 289.066 10.0532 287.996 11.1692C286.926 12.2895 285.528 12.8453 283.808 12.8453C282.088 12.8453 280.757 12.2851 279.665 11.1692C278.568 10.0488 278.02 8.65938 278.02 6.99648C278.02 5.33358 278.568 4.0059 279.665 2.85907C280.762 1.71224 282.141 1.14324 283.808 1.14324C285.475 1.14324 286.926 1.71665 287.996 2.85907C289.066 4.0059 289.601 5.3821 289.601 6.99648Z" fill="white"/>
<path d="M330.338 27.7095C328.565 24.7718 326.155 22.4296 323.099 20.6873C320.048 18.945 316.594 18.0717 312.734 18.0717C308.874 18.0717 305.562 18.945 302.488 20.6873C299.411 22.4296 296.987 24.7718 295.214 27.7095C293.441 30.6515 292.557 33.9685 292.557 37.6604C292.557 41.3523 293.454 44.6958 295.254 47.6864C297.054 50.6813 299.477 53.0456 302.528 54.7879C305.579 56.5302 309.011 57.4035 312.818 57.4035C316.625 57.4035 320.052 56.5302 323.104 54.7879C326.155 53.0456 328.569 50.6769 330.342 47.6864C332.116 44.6958 333 41.3523 333 37.6604C333 33.9685 332.116 30.6471 330.342 27.7095H330.338ZM321.299 43.0064C320.49 44.5414 319.345 45.7367 317.859 46.5969C316.373 47.4526 314.667 47.8848 312.734 47.8848C310.802 47.8848 309.188 47.457 307.728 46.5969C306.269 45.7412 305.119 44.5414 304.288 43.0064C303.452 41.4714 303.037 39.7159 303.037 37.7398C303.037 35.7637 303.452 34.0214 304.288 32.5129C305.119 31.0044 306.269 29.8179 307.728 28.9622C309.188 28.1065 310.859 27.6742 312.734 27.6742C314.609 27.6742 316.36 28.102 317.819 28.9622C319.279 29.8179 320.424 31.0044 321.26 32.5129C322.091 34.0214 322.511 35.7637 322.511 37.7398C322.511 39.7159 322.109 41.4714 321.299 43.0064Z" fill="white"/>
<path d="M289.11 18.8656H278.692V56.561H289.11V18.8656Z" fill="white"/>
<path d="M185.582 56.7456C185.153 56.7809 185.458 56.8118 184.817 56.8118C181.872 56.8118 176.946 56.1678 172.532 52.5465C170.414 50.8086 168.937 48.8325 167.907 46.8432C167.177 45.4361 166.678 44.0158 166.337 42.6705C165.917 41.0076 165.731 39.2918 165.731 37.5759L165.692 18.9267H176.017L176.057 38.1361C176.057 39.4947 176.335 40.8488 176.95 42.0662C177.419 42.9969 178.082 43.9055 179.024 44.6775C181.562 46.7594 184.662 46.6712 185.551 46.5918L185.582 56.7412V56.7456Z" fill="white"/>
<path d="M165.728 35.4818V38.9356C165.618 37.4712 165.662 36.2626 165.728 35.4818Z" fill="white"/>
<path d="M123.783 54.3818V0H133.661V27.0034L132.003 35.7281L133.586 44.6028V54.3818H123.783ZM143.991 55.136C141.378 55.136 139.012 54.5847 136.903 53.4819C134.789 52.3792 133.104 50.8751 131.848 48.9696C130.593 47.0641 129.912 44.9337 129.814 42.5738V29.6367C129.916 27.2813 130.606 25.1597 131.888 23.2806C133.171 21.4016 134.869 19.9328 136.978 18.8786C139.092 17.8244 141.426 17.2995 143.991 17.2995C147.361 17.2995 150.377 18.1287 153.039 19.7828C155.701 21.4369 157.801 23.6953 159.335 26.5535C160.87 29.4118 161.635 32.6449 161.635 36.2575C161.635 39.87 160.87 43.0282 159.335 45.8864C157.801 48.7447 155.705 51.003 153.039 52.6571C150.372 54.3112 147.356 55.1404 143.991 55.1404V55.136ZM142.333 46.0364C144.142 46.0364 145.738 45.6218 147.122 44.7969C148.506 43.9677 149.585 42.8164 150.363 41.3388C151.142 39.8611 151.531 38.1409 151.531 36.1869C151.531 34.2329 151.142 32.5876 150.363 31.1099C149.585 29.6323 148.488 28.4767 147.082 27.6518C145.676 26.8226 144.066 26.4124 142.258 26.4124C140.449 26.4124 138.853 26.827 137.469 27.6518C136.085 28.4811 135.006 29.6323 134.227 31.1099C133.449 32.5876 133.06 34.2814 133.06 36.1869C133.06 38.0924 133.449 39.8611 134.227 41.3388C135.006 42.8164 136.098 43.9721 137.509 44.7969C138.915 45.6262 140.524 46.0364 142.333 46.0364Z" fill="white"/>
<path d="M135.895 99.0277C133.614 99.0277 131.56 98.5118 129.735 97.4802C127.94 96.4485 126.526 95.0223 125.491 93.2017C124.457 91.3508 123.94 89.2267 123.94 86.8296C123.94 84.4021 124.457 82.278 125.491 80.4574C126.526 78.6368 127.94 77.2258 129.735 76.2245C131.56 75.1928 133.614 74.677 135.895 74.677C137.994 74.677 139.865 75.1473 141.508 76.088C143.181 77.0286 144.504 78.4092 145.477 80.2299C146.481 82.0201 146.983 84.22 146.983 86.8296C146.983 89.4088 146.496 91.6087 145.523 93.4293C144.55 95.2499 143.226 96.6457 141.553 97.6167C139.91 98.5574 138.024 99.0277 135.895 99.0277ZM136.123 96.1602C137.827 96.1602 139.348 95.7809 140.686 95.0223C142.055 94.2334 143.12 93.141 143.88 91.7452C144.671 90.3191 145.067 88.6805 145.067 86.8296C145.067 84.9483 144.671 83.3097 143.88 81.9139C143.12 80.5181 142.055 79.4409 140.686 78.6823C139.348 77.8934 137.827 77.4989 136.123 77.4989C134.45 77.4989 132.944 77.8934 131.606 78.6823C130.267 79.4409 129.203 80.5181 128.412 81.9139C127.621 83.3097 127.225 84.9483 127.225 86.8296C127.225 88.6805 127.621 90.3191 128.412 91.7452C129.203 93.141 130.267 94.2334 131.606 95.0223C132.944 95.7809 134.45 96.1602 136.123 96.1602ZM145.158 98.8001V91.6087L145.477 86.7841L145.021 81.9594V65.0277H148.261V98.8001H145.158Z" fill="white"/>
<path d="M167.459 99.0277C164.964 99.0277 162.774 98.5118 160.888 97.4802C159.002 96.4181 157.527 94.9768 156.462 93.1562C155.397 91.3052 154.865 89.1964 154.865 86.8296C154.865 84.4628 155.367 82.3691 156.371 80.5485C157.405 78.7278 158.804 77.3017 160.569 76.27C162.363 75.208 164.371 74.677 166.592 74.677C168.843 74.677 170.835 75.1928 172.569 76.2245C174.334 77.2258 175.718 78.652 176.722 80.5029C177.725 82.3236 178.227 84.4324 178.227 86.8296C178.227 86.9813 178.212 87.1482 178.182 87.3302C178.182 87.482 178.182 87.6488 178.182 87.8309H157.329V85.4186H176.448L175.17 86.3744C175.17 84.6448 174.79 83.1125 174.029 81.7774C173.299 80.4119 172.295 79.3499 171.018 78.5913C169.74 77.8327 168.265 77.4534 166.592 77.4534C164.949 77.4534 163.474 77.8327 162.166 78.5913C160.858 79.3499 159.839 80.4119 159.108 81.7774C158.378 83.1428 158.013 84.7055 158.013 86.4654V86.9661C158.013 88.7867 158.409 90.3949 159.2 91.7907C160.021 93.1562 161.147 94.2334 162.576 95.0223C164.036 95.7809 165.694 96.1602 167.55 96.1602C169.01 96.1602 170.364 95.9023 171.611 95.3864C172.889 94.8706 173.984 94.0817 174.896 93.0197L176.722 95.1134C175.657 96.3878 174.318 97.3588 172.706 98.0263C171.124 98.6939 169.375 99.0277 167.459 99.0277Z" fill="white"/>
<path d="M191.255 99.0277C189.278 99.0277 187.407 98.7546 185.643 98.2084C183.879 97.6319 182.494 96.9188 181.491 96.0692L182.951 93.5203C183.924 94.2486 185.171 94.8858 186.692 95.432C188.213 95.9478 189.81 96.2057 191.483 96.2057C193.765 96.2057 195.408 95.8568 196.411 95.1589C197.415 94.4306 197.917 93.4748 197.917 92.2914C197.917 91.4114 197.628 90.7287 197.05 90.2432C196.503 89.7274 195.773 89.3481 194.86 89.1053C193.947 88.8322 192.928 88.6047 191.803 88.4226C190.677 88.2405 189.552 88.0281 188.426 87.7854C187.331 87.5426 186.327 87.1937 185.415 86.7385C184.502 86.253 183.757 85.6007 183.179 84.7814C182.631 83.9621 182.358 82.8697 182.358 81.5043C182.358 80.1995 182.723 79.0313 183.453 77.9996C184.183 76.9679 185.247 76.1638 186.647 75.5873C188.076 74.9804 189.81 74.677 191.849 74.677C193.4 74.677 194.951 74.8894 196.503 75.3142C198.054 75.7087 199.332 76.2397 200.336 76.9072L198.921 79.5016C197.856 78.7734 196.716 78.2575 195.499 77.9541C194.282 77.6203 193.065 77.4534 191.849 77.4534C189.689 77.4534 188.092 77.8327 187.057 78.5913C186.054 79.3195 185.552 80.2602 185.552 81.4132C185.552 82.3236 185.825 83.0366 186.373 83.5525C186.951 84.0683 187.696 84.478 188.609 84.7814C189.552 85.0545 190.571 85.282 191.666 85.4641C192.792 85.6462 193.902 85.8737 194.997 86.1468C196.123 86.3896 197.142 86.7385 198.054 87.1937C198.997 87.6185 199.742 88.2405 200.29 89.0598C200.868 89.8488 201.157 90.8956 201.157 92.2004C201.157 93.5962 200.762 94.8099 199.971 95.8416C199.21 96.8429 198.085 97.6319 196.594 98.2084C195.134 98.7546 193.354 99.0277 191.255 99.0277Z" fill="white"/>
<path d="M219.467 99.0277C217.399 99.0277 215.528 98.5574 213.855 97.6167C212.182 96.6457 210.843 95.2651 209.839 93.4748C208.866 91.6542 208.379 89.4391 208.379 86.8296C208.379 84.22 208.866 82.0201 209.839 80.2299C210.813 78.4092 212.136 77.0286 213.809 76.088C215.482 75.1473 217.368 74.677 219.467 74.677C221.749 74.677 223.787 75.1928 225.582 76.2245C227.407 77.2258 228.837 78.652 229.871 80.5029C230.905 82.3236 231.422 84.4324 231.422 86.8296C231.422 89.257 230.905 91.3811 229.871 93.2017C228.837 95.0223 227.407 96.4485 225.582 97.4802C223.787 98.5118 221.749 99.0277 219.467 99.0277ZM207.102 107.63V74.9046H210.205V82.096L209.885 86.8751L210.341 91.6997V107.63H207.102ZM219.239 96.1602C220.943 96.1602 222.464 95.7809 223.802 95.0223C225.141 94.2334 226.205 93.141 226.996 91.7452C227.787 90.3191 228.183 88.6805 228.183 86.8296C228.183 84.9786 227.787 83.3552 226.996 81.9594C226.205 80.5636 225.141 79.4713 223.802 78.6823C222.464 77.8934 220.943 77.4989 219.239 77.4989C217.536 77.4989 215.999 77.8934 214.631 78.6823C213.292 79.4713 212.227 80.5636 211.437 81.9594C210.676 83.3552 210.296 84.9786 210.296 86.8296C210.296 88.6805 210.676 90.3191 211.437 91.7452C212.227 93.141 213.292 94.2334 214.631 95.0223C215.999 95.7809 217.536 96.1602 219.239 96.1602Z" fill="white"/>
<path d="M248.202 99.0277C245.708 99.0277 243.517 98.5118 241.631 97.4802C239.745 96.4181 238.27 94.9768 237.205 93.1562C236.141 91.3052 235.608 89.1964 235.608 86.8296C235.608 84.4628 236.11 82.3691 237.114 80.5485C238.148 78.7278 239.548 77.3017 241.312 76.27C243.107 75.208 245.114 74.677 247.335 74.677C249.586 74.677 251.579 75.1928 253.312 76.2245C255.077 77.2258 256.461 78.652 257.465 80.5029C258.469 82.3236 258.971 84.4324 258.971 86.8296C258.971 86.9813 258.955 87.1482 258.925 87.3302C258.925 87.482 258.925 87.6488 258.925 87.8309H238.072V85.4186H257.191L255.913 86.3744C255.913 84.6448 255.533 83.1125 254.773 81.7774C254.043 80.4119 253.039 79.3499 251.761 78.5913C250.483 77.8327 249.008 77.4534 247.335 77.4534C245.692 77.4534 244.217 77.8327 242.909 78.5913C241.601 79.3499 240.582 80.4119 239.852 81.7774C239.122 83.1428 238.757 84.7055 238.757 86.4654V86.9661C238.757 88.7867 239.152 90.3949 239.943 91.7907C240.764 93.1562 241.89 94.2334 243.32 95.0223C244.78 95.7809 246.438 96.1602 248.293 96.1602C249.753 96.1602 251.107 95.9023 252.354 95.3864C253.632 94.8706 254.727 94.0817 255.64 93.0197L257.465 95.1134C256.4 96.3878 255.062 97.3588 253.449 98.0263C251.868 98.6939 250.118 99.0277 248.202 99.0277Z" fill="white"/>
<path d="M271.999 99.0277C270.021 99.0277 268.15 98.7546 266.386 98.2084C264.622 97.6319 263.238 96.9188 262.234 96.0692L263.694 93.5203C264.667 94.2486 265.915 94.8858 267.436 95.432C268.957 95.9478 270.554 96.2057 272.227 96.2057C274.508 96.2057 276.151 95.8568 277.155 95.1589C278.159 94.4306 278.661 93.4748 278.661 92.2914C278.661 91.4114 278.372 90.7287 277.794 90.2432C277.246 89.7274 276.516 89.3481 275.603 89.1053C274.691 88.8322 273.672 88.6047 272.546 88.4226C271.421 88.2405 270.295 88.0281 269.17 87.7854C268.074 87.5426 267.071 87.1937 266.158 86.7385C265.245 86.253 264.5 85.6007 263.922 84.7814C263.375 83.9621 263.101 82.8697 263.101 81.5043C263.101 80.1995 263.466 79.0313 264.196 77.9996C264.926 76.9679 265.991 76.1638 267.39 75.5873C268.82 74.9804 270.554 74.677 272.592 74.677C274.143 74.677 275.695 74.8894 277.246 75.3142C278.797 75.7087 280.075 76.2397 281.079 76.9072L279.664 79.5016C278.6 78.7734 277.459 78.2575 276.242 77.9541C275.025 77.6203 273.809 77.4534 272.592 77.4534C270.432 77.4534 268.835 77.8327 267.801 78.5913C266.797 79.3195 266.295 80.2602 266.295 81.4132C266.295 82.3236 266.569 83.0366 267.116 83.5525C267.694 84.0683 268.439 84.478 269.352 84.7814C270.295 85.0545 271.314 85.282 272.409 85.4641C273.535 85.6462 274.645 85.8737 275.74 86.1468C276.866 86.3896 277.885 86.7385 278.797 87.1937C279.74 87.6185 280.486 88.2405 281.033 89.0598C281.611 89.8488 281.9 90.8956 281.9 92.2004C281.9 93.5962 281.505 94.8099 280.714 95.8416C279.953 96.8429 278.828 97.6319 277.337 98.2084C275.877 98.7546 274.098 99.0277 271.999 99.0277Z" fill="white"/>
<path d="M302.857 98.8001V93.5203L302.72 92.6555V83.8256C302.72 81.7925 302.142 80.2299 300.986 79.1375C299.861 78.0451 298.172 77.4989 295.921 77.4989C294.37 77.4989 292.895 77.7569 291.495 78.2727C290.096 78.7885 288.91 79.4713 287.936 80.3209L286.476 77.9086C287.693 76.8769 289.153 76.088 290.857 75.5418C292.56 74.9652 294.355 74.677 296.241 74.677C299.344 74.677 301.732 75.4507 303.405 76.9983C305.108 78.5154 305.96 80.8367 305.96 83.9621V98.8001H302.857ZM294.598 99.0277C292.803 99.0277 291.237 98.7394 289.898 98.1629C288.59 97.556 287.586 96.7367 286.887 95.7051C286.187 94.643 285.837 93.4293 285.837 92.0638C285.837 90.8197 286.126 89.697 286.704 88.6957C287.313 87.664 288.286 86.8447 289.624 86.2379C290.993 85.6007 292.819 85.2821 295.1 85.2821H303.359V87.6944H295.191C292.879 87.6944 291.267 88.104 290.355 88.9233C289.472 89.7426 289.031 90.7591 289.031 91.9728C289.031 93.3383 289.564 94.4306 290.628 95.2499C291.693 96.0692 293.184 96.4788 295.1 96.4788C296.925 96.4788 298.492 96.0692 299.8 95.2499C301.138 94.4003 302.112 93.1865 302.72 91.6087L303.45 93.8389C302.842 95.4168 301.777 96.676 300.256 97.6167C298.766 98.5574 296.88 99.0277 294.598 99.0277Z" fill="white"/>
<path d="M321.193 99.0277C319.216 99.0277 317.345 98.7546 315.581 98.2084C313.816 97.6319 312.432 96.9188 311.428 96.0692L312.889 93.5203C313.862 94.2486 315.109 94.8858 316.63 95.432C318.151 95.9478 319.748 96.2057 321.421 96.2057C323.703 96.2057 325.345 95.8568 326.349 95.1589C327.353 94.4306 327.855 93.4748 327.855 92.2914C327.855 91.4114 327.566 90.7287 326.988 90.2432C326.441 89.7274 325.711 89.3481 324.798 89.1053C323.885 88.8322 322.866 88.6047 321.741 88.4226C320.615 88.2405 319.49 88.0281 318.364 87.7854C317.269 87.5426 316.265 87.1937 315.353 86.7385C314.44 86.253 313.695 85.6007 313.117 84.7814C312.569 83.9621 312.295 82.8697 312.295 81.5043C312.295 80.1995 312.66 79.0313 313.39 77.9996C314.121 76.9679 315.185 76.1638 316.585 75.5873C318.014 74.9804 319.748 74.677 321.786 74.677C323.338 74.677 324.889 74.8894 326.441 75.3142C327.992 75.7087 329.27 76.2397 330.273 76.9072L328.859 79.5016C327.794 78.7734 326.654 78.2575 325.437 77.9541C324.22 77.6203 323.003 77.4534 321.786 77.4534C319.627 77.4534 318.029 77.8327 316.995 78.5913C315.991 79.3195 315.489 80.2602 315.489 81.4132C315.489 82.3236 315.763 83.0366 316.311 83.5525C316.889 84.0683 317.634 84.478 318.547 84.7814C319.49 85.0545 320.509 85.282 321.604 85.4641C322.729 85.6462 323.84 85.8737 324.935 86.1468C326.06 86.3896 327.079 86.7385 327.992 87.1937C328.935 87.6185 329.68 88.2405 330.228 89.0598C330.806 89.8488 331.095 90.8956 331.095 92.2004C331.095 93.5962 330.699 94.8099 329.908 95.8416C329.148 96.8429 328.022 97.6319 326.532 98.2084C325.072 98.7546 323.292 99.0277 321.193 99.0277Z" fill="white"/>
<path d="M0 95.0115H62.3513C65.947 95.0115 68.8618 97.9191 68.8618 101.506C68.8618 105.092 65.947 108 62.3513 108H0V95.0115Z" fill="#FF6720"/>
<path d="M0.00616259 77.0264H81.7639C85.4288 77.0264 88.3997 79.9899 88.3997 83.6456C88.3997 87.3012 85.4288 90.2647 81.7639 90.2647H0.00616259V77.0264Z" fill="#FF6720"/>
<path d="M0.00379236 59.0437H88.0217C91.6866 59.0437 94.6575 62.0072 94.6575 65.6628C94.6575 69.3185 91.6866 72.282 88.0217 72.282H0.00379236V59.0437Z" fill="#FF6720"/>
<path d="M0.00379236 41.308H88.0217C91.6866 41.308 94.6575 44.2715 94.6575 47.9271C94.6575 51.5828 91.6866 54.5463 88.0217 54.5463H0.00379236V41.308Z" fill="#FF6720"/>
<path d="M0.00189618 23.325H80.0068C83.6716 23.325 86.6426 26.2885 86.6426 29.9442C86.6426 33.5998 83.6717 36.5633 80.0068 36.5633H0.00189618V23.325Z" fill="#FF6720"/>
<path d="M0.00189618 5.58985H55.2166C58.8814 5.58985 61.8523 8.55333 61.8523 12.209C61.8523 15.8646 58.8814 18.8281 55.2166 18.8281H0.00189618V5.58985Z" fill="#FF6720"/>
</svg>
